<svg id="Layer_1" data-name="Layer 1" xmlns="http://www.w3.org/2000/svg" viewBox="0 0 64 64"><title>DropPoint Symbolic</title><g id="Final"><g id="arrow"><path d="M47.93,37.1h0v-.18A1,1,0,0,0,47.93,37.1Z"/><path d="M52.46,35.66l.12.15-.16-.18Z"/><path d="M53.92,36.93v.18h0A1,1,0,0,0,53.92,36.93Z"/><path d="M52.58,35.81l-.16-.18,0,0Z"/><path d="M47.93,37.1h0v-.18A1,1,0,0,0,47.93,37.1Z"/><path d="M52.58,35.81l-.16-.18,0,0Z"/><path d="M52.46,35.66l.12.15-.16-.18Z"/><path d="M53.92,36.93v.18h0A1,1,0,0,0,53.92,36.93Z"/><path d="M52.58,35.81l-.16-.18,0,0Z"/></g><g id="Main"><path d="M58.75,44.76a2,2,0,0,1-2.82,0l-3-3v17.5a2,2,0,0,1-4,0V41.75l-3,3a2,2,0,0,1-2.82-2.82l4.83-4.83h0l1.45-1.44,0,0h0v0l.09-.09a1.78,1.78,0,0,1,.26-.22l0,0,.1-.06a1.59,1.59,0,0,1,.29-.15l.14,0,.19-.05h0a1.82,1.82,0,0,1,.76,0h0l.19.05.14,0a1.59,1.59,0,0,1,.29.15l.1.06,0,0a1.78,1.78,0,0,1,.26.22l.09.09v0l.16.18-.12-.15,1.45,1.44,4.84,4.84A2,2,0,0,1,58.75,44.76Z"/><path d="M58.75,44.76a2,2,0,0,1-2.82,0l-3-3v17.5a2,2,0,0,1-4,0V41.75l-3,3a2,2,0,0,1-2.82-2.82l4.83-4.83h0l1.45-1.44,0,0h0v0l.09-.09a1.78,1.78,0,0,1,.26-.22l0,0,.1-.06a1.59,1.59,0,0,1,.29-.15l.14,0,.19-.05h0a1.82,1.82,0,0,1,.76,0h0l.19.05.14,0a1.59,1.59,0,0,1,.29.15l.1.06,0,0a1.78,1.78,0,0,1,.26.22l.09.09v0l.16.18-.12-.15,1.45,1.44,4.84,4.84A2,2,0,0,1,58.75,44.76Z"/><path d="M52,24.32,35.61,5.88a1.48,1.48,0,0,0-1.12-.5H16a4.51,4.51,0,0,0-4.5,4.5V54.52A4.51,4.51,0,0,0,16,59H45.92V56H16a1.5,1.5,0,0,1-1.5-1.5V9.88A1.5,1.5,0,0,1,16,8.38H33V22.32a4.51,4.51,0,0,0,4.5,4.5H49.42v5.34l.12,0,.19,0,.46-.09a5.71,5.71,0,0,1,.73-.05,5,5,0,0,1,.88.08l.37.08.13,0,.12,0V25.32A1.49,1.49,0,0,0,52,24.32Zm-14.55-.5a1.5,1.5,0,0,1-1.5-1.5V10.82l11.58,13Z"/></g></g></svg>